<?xml version="1.0" encoding="UTF-8" standalone="no"?>
<!DOCTYPE svg PUBLIC "-//W3C//DTD SVG 1.1//EN" "http://www.w3.org/Graphics/SVG/1.1/DTD/svg11.dtd">
<svg 
  width="100%" 
  height="100%" 
  viewBox="0 0 2084 1292" 
  version="1.1" 
  xmlns="http://www.w3.org/2000/svg" 
  xmlns:xlink="http://www.w3.org/1999/xlink" 
  xml:space="preserve" 
  xmlns:serif="http://www.serif.com/" 
  style="fill-rule:evenodd;clip-rule:evenodd;stroke-linejoin:round;stroke-miterlimit:2;"
>
  <path 
    d="M1952.34,405.783l0,413.501l-410.196,-376.965c1.313,-0.313 2.447,-0.555 3.829,-0.862c38.121,-6.158 68.311,-12.301 90.455,-18.474c17.255,-3.691 25.875,-12.925 25.875,-27.708c-1.204,-12.281 -11.691,-19.682 -31.393,-22.164c-17.245,0 -30.809,1.243 -40.638,3.691c-8.625,1.243 -16.943,2.779 -24.909,4.622c-8.07,1.848 -16.353,3.403 -24.943,4.607c-3.696,1.244 -9.591,2.779 -17.557,4.642c-8.011,1.828 -14.491,2.74 -19.425,2.74l-5.524,-0c0,-4.88 3.077,-11.677 9.25,-20.302l184.71,-295.502c8.585,-13.559 13.519,-22.788 14.763,-27.737c3.69,-17.195 0.584,-30.74 -9.21,-40.623c-8.66,-6.158 -17.319,-9.249 -25.875,-9.249c-4.934,-0 -9.249,0.639 -12.974,1.868c-12.316,6.172 -19.697,10.467 -22.15,12.915c-19.662,17.269 -33.845,30.809 -42.431,40.657c-55.44,52.944 -104.088,110.812 -145.965,173.604c-18.458,28.341 -40.608,58.818 -66.448,91.441c-25.904,32.637 -43.124,54.489 -51.71,65.546l-40.677,51.735c-7.386,8.64 -16.011,14.748 -25.84,18.473l-88.667,29.546c-105.902,34.48 -184.665,62.188 -236.395,83.108c-1.258,0 -3.121,0.639 -5.554,1.863c-2.501,1.224 -4.934,0 -7.381,-3.705l11.057,-25.86c30.804,-70.189 67.132,-148.948 108.949,-236.406l27.752,-57.268c19.673,-36.947 35.684,-73.225 48,-108.983c1.238,-4.9 3.106,-12.004 5.518,-21.253c2.517,-9.229 4.345,-17.522 5.554,-24.909c2.516,-19.677 -3.656,-33.86 -18.489,-42.5c-7.351,-3.676 -13.529,-5.524 -18.424,-5.524c-8.624,0 -17.869,3.072 -27.697,9.23c-3.706,2.486 -12.935,11.077 -27.683,25.84c-28.377,39.434 -56.684,83.747 -85.006,132.995c-67.721,118.212 -136.067,257.38 -204.997,417.439c-7.381,19.717 -19.732,33.881 -36.932,42.491c-61.613,32.013 -109.617,60.964 -144.082,86.804c-18.494,13.559 -30.809,25.256 -36.952,35.089c-0.342,0.654 -0.639,1.273 -0.966,1.932c-7.451,-13.385 -16.146,-25.255 -26.252,-35.361c-14.664,-14.664 -31.344,-26.673 -50.04,-36.016c-18.716,-9.353 -37.571,-16.839 -56.595,-22.471c-19.043,-5.623 -37.452,-9.953 -55.202,-13.094c-17.75,-3.106 -33.202,-6.227 -46.281,-9.348c-17.487,-4.345 -35.55,-8.709 -54.266,-13.088c-18.716,-4.37 -35.877,-9.681 -51.452,-15.908c-15.58,-6.227 -28.396,-14.025 -38.384,-23.393c-9.952,-9.348 -14.956,-20.886 -14.956,-34.618c0,-13.698 4.241,-25.409 12.608,-35.065c8.437,-9.665 19.063,-17.616 31.81,-23.858c12.781,-6.227 26.34,-10.765 40.727,-13.579c14.337,-2.794 27.118,-4.191 38.363,-4.191c32.999,-0 64.531,5.92 94.459,17.77c29.947,11.85 61.152,28.996 93.581,51.452l72.947,-102.909c-21.218,-14.971 -41.039,-27.906 -59.423,-38.83c-18.424,-10.899 -37.259,-19.92 -56.614,-27.113c-19.306,-7.159 -40.177,-12.648 -62.654,-16.373c-22.456,-3.74 -48.004,-5.608 -76.707,-5.608c-28.669,-0 -58.443,3.106 -89.321,9.333c-30.874,6.247 -58.938,17.027 -84.208,32.295c-25.256,15.283 -46.008,36.17 -62.223,62.669c-16.179,26.508 -24.284,59.735 -24.284,99.63c-0,27.43 4.518,51.303 13.539,71.55c9.021,20.287 21.045,37.77 36.016,52.399c14.976,14.664 31.79,26.841 50.54,36.461c18.682,9.695 37.71,17.498 57.046,23.393c19.301,5.97 38.017,10.626 56.134,14.045c18.092,3.448 33.994,6.415 47.707,8.897c20.579,3.731 40.365,7.798 59.393,12.147c19.058,4.38 35.536,9.69 49.56,15.903c14.089,6.247 25.286,14.178 33.722,23.873c8.402,9.655 12.593,21.357 12.593,35.084c0,10.592 -2.814,21.357 -8.367,32.256c-5.657,10.938 -14.079,20.599 -25.29,29.011c-11.226,8.421 -24.958,15.288 -41.193,20.569c-16.214,5.31 -34.896,7.931 -56.074,7.931c-39.949,-0 -78.125,-8.556 -114.611,-25.701c-36.496,-17.146 -71.878,-37.532 -106.184,-61.267l-71.125,104.768c21.218,14.976 41.797,28.703 61.737,41.163c19.994,12.484 41.197,23.249 63.634,32.255c22.462,9.076 47.232,16.249 74.365,21.525c27.133,5.311 58.511,7.937 94.027,7.937c38.656,-0 73.899,-4.345 105.703,-13.079c31.795,-8.729 59.24,-21.664 82.336,-38.81c23.061,-17.145 40.811,-38.849 53.3,-65.031c12.469,-26.182 18.716,-57.06 18.716,-92.595c0,-18.181 -1.793,-34.569 -4.983,-49.54c0.807,-0.139 1.669,-0.174 2.482,-0.446c5.553,-1.868 13.212,-7.075 23.095,-15.699c25.84,-25.875 67.122,-52.924 123.766,-81.281l3.676,1.863c-0,2.452 -0.931,5.865 -2.774,10.146c-1.833,4.344 -3.404,7.688 -4.607,10.136c-2.468,8.629 -11.732,35.743 -27.723,81.285c-15.987,45.572 -27.703,89.9 -35.065,132.99c-4.954,32.018 -7.401,57.239 -7.401,75.732c0,17.245 1.843,35.084 5.554,53.573c4.879,24.601 12.281,41.227 22.149,49.852c14.763,14.768 27.688,22.184 38.775,22.184c12.301,-0 24.027,-9.244 35.104,-27.742c3.711,-4.93 6.158,-11.38 7.382,-19.385c1.208,-8.006 1.862,-13.213 1.862,-15.665c2.487,-8.655 4.607,-17.904 6.455,-27.733c1.893,-9.868 3.983,-19.112 6.465,-27.702c29.551,-123.098 73.879,-255.503 132.996,-397.114c4.879,-14.782 14.782,-24.616 29.516,-29.55c35.758,-15.992 75.449,-31.409 119.193,-46.177c43.674,-14.762 71.679,-24.616 83.965,-29.545c13.589,-3.711 44.364,-14.149 92.348,-31.399c13.564,-3.69 20.361,-0.619 20.361,9.23l-1.828,7.381c-0,2.502 -1.243,6.193 -3.725,11.077l-86.77,206.88c-57.887,131.756 -96.707,263.508 -116.389,395.26c-2.467,22.184 -3.676,38.78 -3.676,49.887c-0,11.072 0.584,19.043 1.848,23.977c7.381,28.322 23.353,46.196 48.004,53.578c17.225,4.929 31.403,2.14 42.476,-8.318c11.077,-10.453 14.768,-24.319 11.077,-41.569c-2.452,-8.625 -1.828,-20.287 1.863,-35.084c8.624,-29.531 20.871,-62.792 36.947,-99.739c11.037,-23.393 20.316,-48.644 27.702,-75.727c48.024,-167.421 134.199,-351.522 258.535,-552.238c6.178,-12.316 16.665,-19.073 31.433,-20.317c4.206,-0.659 9.106,-1.486 14.456,-2.487l0,635.862l130.954,0l0,-406.922l449.973,406.922l14.044,0l0,-683.831l-130.994,-0Z"
    style="fill-rule:nonzero;"
  />
</svg>