<?xml version="1.0" encoding="UTF-8" standalone="no"?><!DOCTYPE svg PUBLIC "-//W3C//DTD SVG 1.1//EN" "http://www.w3.org/Graphics/SVG/1.1/DTD/svg11.dtd"><svg width="100%" height="100%" viewBox="0 0 2084 280" version="1.1" xmlns="http://www.w3.org/2000/svg" xmlns:xlink="http://www.w3.org/1999/xlink" xml:space="preserve" xmlns:serif="http://www.serif.com/" style="fill-rule:evenodd;clip-rule:evenodd;stroke-linejoin:round;stroke-miterlimit:2;"><g><path d="M1010.08,267.081c-0.265,-1.066 -0.398,-2.793 -0.398,-5.191c0,-2.395 0.263,-5.987 0.796,-10.781c4.234,-28.475 12.582,-56.949 25.038,-85.429l18.678,-44.713c0.53,-1.061 0.796,-1.86 0.796,-2.395l0.398,-1.599c-0,-2.127 -1.459,-2.793 -4.372,-1.994c-10.335,3.731 -16.958,5.988 -19.874,6.787c-2.65,1.066 -8.678,3.193 -18.082,6.385c-9.409,3.195 -17.952,6.528 -25.634,9.982c-3.178,1.066 -5.302,3.195 -6.358,6.385c-12.717,30.611 -22.256,59.226 -28.615,85.836c-0.535,1.858 -0.993,3.853 -1.391,5.987c-0.398,2.127 -0.861,4.123 -1.392,5.988c0,0.53 -0.135,1.659 -0.397,3.393c-0.266,1.73 -0.794,3.127 -1.589,4.193c-2.385,3.994 -4.905,5.988 -7.553,5.988c-2.382,-0 -5.164,-1.597 -8.345,-4.794c-2.124,-1.862 -3.711,-5.457 -4.769,-10.776c-0.794,-3.992 -1.192,-7.853 -1.192,-11.575c0,-3.997 0.528,-9.447 1.589,-16.372c1.592,-9.313 4.104,-18.892 7.553,-28.743c3.438,-9.844 5.427,-15.703 5.96,-17.563c0.263,-0.531 0.598,-1.262 0.994,-2.197c0.397,-0.928 0.595,-1.662 0.595,-2.2l-0.793,-0.397c-12.189,6.128 -21.063,11.978 -26.628,17.568c-2.122,1.865 -3.776,2.994 -4.967,3.393c-1.194,0.398 -2.455,0.068 -3.776,-1c-1.331,-1.325 -1.987,-2.795 -1.987,-4.391c0,-1.596 0.526,-3.323 1.589,-5.191c1.322,-2.127 3.974,-4.65 7.948,-7.584c7.414,-5.588 17.749,-11.837 31.001,-18.764c3.706,-1.858 6.356,-4.919 7.948,-9.18c14.834,-34.596 29.54,-64.674 44.114,-90.225c6.091,-10.641 12.184,-20.223 18.282,-28.744c3.178,-3.192 5.168,-5.052 5.961,-5.588c2.117,-1.329 4.104,-1.996 5.963,-1.996c1.054,0 2.382,0.398 3.971,1.197c3.181,1.865 4.505,4.929 3.976,9.182c-0.267,1.597 -0.665,3.394 -1.191,5.39c-0.535,1.996 -0.933,3.531 -1.193,4.592c-2.653,7.722 -6.098,15.567 -10.335,23.553l-5.961,12.377c-9.01,18.9 -16.828,35.928 -23.447,51.098l-2.384,5.59c0.528,0.8 1.056,1.068 1.589,0.8c0.528,-0.262 0.925,-0.4 1.193,-0.4c11.128,-4.522 28.079,-10.51 50.871,-17.965l19.075,-6.39c2.12,-0.797 3.974,-2.124 5.568,-3.989l8.741,-11.181c1.849,-2.393 5.56,-7.114 11.13,-14.169c5.56,-7.049 10.332,-13.637 14.304,-19.763c9.006,-13.573 19.478,-26.081 31.399,-37.526c1.847,-2.127 4.897,-5.055 9.139,-8.785c0.528,-0.531 2.117,-1.458 4.767,-2.793c0.798,-0.262 1.724,-0.402 2.785,-0.402c1.849,-0 3.708,0.671 5.563,1.998c2.117,2.134 2.785,5.06 1.987,8.783c-0.266,1.066 -1.327,3.064 -3.178,5.988l-39.741,63.877c-1.333,1.865 -1.989,3.332 -1.989,4.391l1.191,-0c1.054,-0 2.445,-0.201 4.174,-0.598c1.719,-0.4 2.978,-0.732 3.776,-1.001c1.85,-0.259 3.636,-0.596 5.363,-0.995c1.722,-0.4 3.511,-0.732 5.367,-1.001c2.115,-0.528 5.033,-0.796 8.746,-0.796c4.234,0.535 6.486,2.133 6.754,4.791c0,3.194 -1.859,5.188 -5.565,5.987c-4.77,1.335 -11.263,2.664 -19.471,3.994c-6.896,1.596 -12.061,2.665 -15.502,3.19c-3.176,0.269 -5.433,1.737 -6.757,4.394c-26.762,43.383 -45.307,83.174 -55.642,119.366c-1.587,5.852 -3.573,11.309 -5.961,16.369c-3.445,7.983 -6.095,15.172 -7.947,21.555c-0.796,3.197 -0.931,5.723 -0.398,7.586c0.796,3.725 0,6.721 -2.385,8.984c-2.382,2.259 -5.432,2.858 -9.138,1.794c-5.305,-1.596 -8.744,-5.457 -10.335,-11.575" style="fill:#231f20;fill-rule:nonzero;"/><path d="M1140.44,152.502c8.744,-6.915 16.296,-15.168 22.654,-24.747c1.587,-2.929 2.715,-5.254 3.378,-6.988c0.656,-1.73 0.596,-3.391 -0.2,-4.99c-3.713,1.865 -9.476,7.521 -17.286,16.967c-7.817,9.449 -12.259,16.435 -13.317,20.957c-0.266,0.799 -0.266,1.196 -0,1.196c1.593,-0.528 3.182,-1.33 4.771,-2.395m-31.795,81.442c-3.713,0 -7.024,-0.865 -9.936,-2.592c-2.918,-1.736 -5.303,-4.195 -7.15,-7.387c-2.647,-3.994 -3.976,-9.182 -3.976,-15.57c-0.796,-7.986 0.663,-16.899 4.372,-26.748c11.125,-29.005 29.01,-53.357 53.653,-73.056c3.971,-3.195 8.475,-5.85 13.51,-7.984c1.324,-0.53 3.308,-0.799 5.963,-0.799c4.502,-0 8.148,1.732 10.928,5.191c2.785,3.461 3.906,7.186 3.378,11.175c0.263,4.791 -1.589,10.651 -5.56,17.568c-10.605,17.033 -24.911,29.94 -42.926,38.723c-2.124,1.068 -3.643,2.064 -4.571,2.996c-0.931,0.933 -1.657,2.195 -2.185,3.791c-3.971,11.176 -6.496,19.028 -7.55,23.555c-0.798,1.863 -1.458,4.927 -1.989,9.183l0,0.397c0,1.066 1.056,1.066 3.181,0c11.128,-4.791 19.871,-10.112 26.229,-15.967l14.309,-13.576c2.385,-2.393 4.369,-3.723 5.96,-3.989c0.528,-0.264 1.324,-0.402 2.385,-0.402c1.589,-0 2.913,0.537 3.974,1.596c0.26,0.269 0.395,0.799 0.395,1.598c0,2.665 -0.791,4.792 -2.38,6.39l-14.308,15.17c-5.035,5.586 -11.528,11.377 -19.476,17.364c-7.947,5.988 -14.306,10.045 -19.078,12.179c-2.38,0.797 -4.767,1.194 -7.152,1.194" style="fill:#231f20;fill-rule:nonzero;"/><path d="M1175.01,217.578c0.268,-4.522 1.061,-9.047 2.382,-13.574c2.125,-6.651 6.494,-18.095 13.118,-34.331c5.297,-12.508 11.13,-25.014 17.486,-37.529l6.756,-14.373c1.057,-1.327 2.187,-3.054 3.381,-5.188c1.189,-2.129 2.317,-3.854 3.378,-5.188c2.115,-2.13 4.369,-3.195 6.757,-3.195c0.793,-0 1.986,0.266 3.575,0.799c3.439,1.596 5.168,4.658 5.168,9.182c-0.27,2.396 -0.666,4.46 -1.194,6.187c-0.535,1.736 -0.931,3.262 -1.191,4.592c-1.063,2.931 -1.726,5.588 -1.992,7.983c-0.53,2.132 -1.126,4.062 -1.786,5.789c-0.663,1.737 -1.259,3.394 -1.787,4.99c1.056,-0.531 2.512,-1.596 4.371,-3.195l7.152,-5.987l12.72,-9.58c7.947,-5.324 15.897,-8.914 23.845,-10.779c2.647,-0.532 4.772,-0.799 6.358,-0.799l4.772,0.397c3.439,0.8 6.221,2.931 8.346,6.39c0.523,1.596 0.795,2.662 0.795,3.195c0,0.797 -0.395,1.865 -1.193,3.192c-2.385,2.393 -4.64,2.795 -6.757,1.199c-2.124,-1.33 -4.111,-1.996 -5.963,-1.996c-1.586,0 -4.509,0.797 -8.741,2.393c-3.715,1.337 -6.628,2.796 -8.745,4.394c-21.198,13.039 -37.358,29.01 -48.486,47.905c-1.589,2.134 -3.05,5.058 -4.369,8.781c-4.77,11.178 -8.218,19.561 -10.335,25.154c-2.385,5.326 -4.372,8.918 -5.963,10.778c-2.918,3.721 -6.358,5.586 -10.332,5.586c-0.798,-0 -1.987,-0.267 -3.576,-0.799c-5.298,-2.13 -7.95,-6.25 -7.95,-12.373" style="fill:#231f20;fill-rule:nonzero;"/><path d="M0,216.1l15.297,-22.645c7.379,5.128 14.996,9.538 22.847,13.244c7.851,3.709 16.066,5.559 24.655,5.559c4.562,0 8.589,-0.571 12.08,-1.717c3.487,-1.146 6.441,-2.628 8.857,-4.45c2.416,-1.819 4.227,-3.907 5.435,-6.268c1.206,-2.355 1.811,-4.68 1.811,-6.974c-0,-2.964 -0.907,-5.493 -2.718,-7.581c-1.81,-2.09 -4.227,-3.81 -7.245,-5.157c-3.019,-1.346 -6.578,-2.494 -10.67,-3.437c-4.095,-0.942 -8.353,-1.821 -12.782,-2.63c-2.954,-0.538 -6.376,-1.18 -10.265,-1.921c-3.894,-0.739 -7.919,-1.751 -12.078,-3.032c-4.16,-1.282 -8.252,-2.965 -12.278,-5.058c-4.025,-2.085 -7.649,-4.716 -10.87,-7.882c-3.219,-3.168 -5.807,-6.941 -7.75,-11.326c-1.946,-4.376 -2.918,-9.533 -2.918,-15.467c0,-8.623 1.744,-15.802 5.233,-21.533c3.489,-5.726 7.952,-10.241 13.387,-13.545c5.435,-3.304 11.473,-5.627 18.116,-6.978c6.643,-1.344 13.047,-2.02 19.222,-2.02c6.173,-0 11.676,0.404 16.506,1.213c4.832,0.807 9.324,1.989 13.486,3.537c4.159,1.552 8.22,3.507 12.179,5.864c3.955,2.359 8.218,5.156 12.782,8.392l-15.702,22.243c-6.978,-4.854 -13.686,-8.56 -20.127,-11.125c-6.443,-2.558 -13.221,-3.839 -20.332,-3.839c-2.413,-0 -5.167,0.303 -8.251,0.908c-3.091,0.608 -6.009,1.587 -8.758,2.931c-2.751,1.352 -5.032,3.071 -6.843,5.157c-1.813,2.093 -2.717,4.621 -2.717,7.581c-0,2.97 1.073,5.462 3.219,7.485c2.146,2.02 4.897,3.708 8.253,5.055c3.355,1.346 7.046,2.494 11.073,3.434c4.024,0.947 7.916,1.892 11.673,2.829c2.819,0.678 6.139,1.354 9.963,2.023c3.827,0.678 7.781,1.618 11.878,2.831c4.092,1.214 8.153,2.832 12.177,4.854c4.024,2.02 7.615,4.617 10.769,7.785c3.151,3.168 5.702,7.078 7.648,11.728c1.944,4.651 2.92,10.28 2.92,16.882c0,7.684 -1.343,14.357 -4.026,20.02c-2.684,5.66 -6.511,10.345 -11.473,14.05c-4.967,3.711 -10.87,6.504 -17.713,8.393c-6.846,1.887 -14.427,2.829 -22.746,2.829c-7.648,0 -14.393,-0.576 -20.23,-1.719c-5.838,-1.141 -11.172,-2.696 -16.002,-4.651c-4.829,-1.95 -9.394,-4.277 -13.688,-6.973c-4.295,-2.694 -8.724,-5.663 -13.284,-8.899" style="fill:#231f20;fill-rule:nonzero;"/><path d="M331.318,87.708l0,147.804l-28.18,0l-0,-74.815l-46.094,55.608l-45.893,-55.608l-0,74.815l-28.183,0l-0,-147.804l1.813,0l72.263,85.325l72.464,-85.325l1.81,0Z" style="fill:#231f20;fill-rule:nonzero;"/><path d="M442.029,187.592l42.07,0l-20.933,-44.686l-21.137,44.686Zm-55.555,47.92l75.282,-147.804l2.819,-0l75.279,147.804l-30.594,0l-11.473,-23.253l-69.444,0l-11.273,23.253l-30.596,0Z" style="fill:#231f20;fill-rule:nonzero;"/><path d="M617.756,163.326l38.723,-0c2.541,-0 5.179,-0.504 7.923,-1.514c2.742,-1.01 5.182,-2.563 7.321,-4.651c2.141,-2.087 3.913,-4.684 5.319,-7.787c1.401,-3.098 2.108,-6.736 2.108,-10.916c-0,-2.154 -0.268,-4.716 -0.803,-7.683c-0.533,-2.963 -1.606,-5.794 -3.21,-8.492c-1.606,-2.696 -3.879,-4.985 -6.824,-6.877c-2.941,-1.884 -6.886,-2.829 -11.834,-2.829l-38.723,-0l0,50.749Zm0,72.187l-28.18,0l-0,-148.008l66.941,0c7.528,0 14.417,1.248 20.67,3.74c6.247,2.495 11.593,6 16.028,10.515c4.434,4.517 7.896,9.909 10.385,16.175c2.483,6.268 3.73,13.113 3.73,20.523c0,11.192 -2.79,20.963 -8.369,29.317c-5.58,8.359 -13.004,14.356 -22.281,17.997c12.38,16.449 24.612,33.026 36.688,49.741l-33.616,0c-5.885,-7.685 -11.636,-15.434 -17.252,-23.255c-5.618,-7.811 -11.237,-15.77 -16.857,-23.856l-27.887,0l0,47.111Z" style="fill:#231f20;fill-rule:nonzero;"/><path d="M872.183,112.578l-42.07,-0l0,122.934l-28.178,-0l0,-122.934l-42.272,-0l0,-25.072l112.52,0l-0,25.072Z" style="fill:#231f20;fill-rule:nonzero;"/><path d="M1477.06,235.512l-96.824,-87.955l-0,87.955l-28.181,0l0,-147.804l3.022,0l96.817,89.368l-0,-89.368l28.183,0l-0,147.804l-3.017,0Z" style="fill:#231f20;fill-rule:nonzero;"/><path d="M1580.72,112.578l-0,37.003l71.253,-0l-0,25.677l-71.253,0l-0,34.777l80.314,0l0,25.477l-108.495,-0l0,-148.006l108.495,0l0,25.072l-80.314,-0Z" style="fill:#231f20;fill-rule:nonzero;"/><path d="M1911.63,87.708l-54.95,147.804l-2.819,0l-39.858,-86.138l-40.259,86.34l-2.614,-0l-54.35,-148.006l29.994,0l28.781,81.079l37.445,-81.079l1.813,0l37.437,81.28l29.389,-81.28l29.991,0Z" style="fill:#231f20;fill-rule:nonzero;"/><path d="M1964.17,216.1l15.295,-22.645c7.378,5.128 14.998,9.538 22.849,13.244c7.851,3.709 16.066,5.559 24.655,5.559c4.562,0 8.586,-0.571 12.08,-1.717c3.49,-1.146 6.441,-2.628 8.857,-4.45c2.416,-1.819 4.225,-3.907 5.433,-6.268c1.208,-2.355 1.813,-4.68 1.813,-6.974c-0,-2.964 -0.909,-5.493 -2.718,-7.581c-1.81,-2.09 -4.227,-3.81 -7.243,-5.157c-3.021,-1.346 -6.583,-2.494 -10.672,-3.437c-4.095,-0.942 -8.355,-1.821 -12.785,-2.63c-2.951,-0.538 -6.373,-1.18 -10.262,-1.921c-3.892,-0.739 -7.921,-1.751 -12.081,-3.032c-4.157,-1.282 -8.251,-2.965 -12.275,-5.058c-4.025,-2.085 -7.651,-4.716 -10.868,-7.882c-3.221,-3.168 -5.806,-6.941 -7.752,-11.326c-1.946,-4.376 -2.918,-9.533 -2.918,-15.467c0,-8.623 1.743,-15.802 5.233,-21.533c3.489,-5.726 7.95,-10.241 13.387,-13.545c5.435,-3.304 11.47,-5.627 18.116,-6.978c6.64,-1.344 13.047,-2.02 19.222,-2.02c6.173,-0 11.676,0.404 16.508,1.213c4.83,0.807 9.324,1.989 13.484,3.537c4.159,1.552 8.22,3.507 12.179,5.864c3.957,2.359 8.215,5.156 12.782,8.392l-15.704,22.243c-6.976,-4.854 -13.687,-8.56 -20.125,-11.125c-6.44,-2.558 -13.221,-3.839 -20.334,-3.839c-2.414,-0 -5.167,0.303 -8.251,0.908c-3.087,0.608 -6.009,1.587 -8.756,2.931c-2.753,1.352 -5.034,3.071 -6.843,5.157c-1.813,2.093 -2.717,4.621 -2.717,7.581c-0,2.97 1.073,5.462 3.216,7.485c2.149,2.02 4.9,3.708 8.254,5.055c3.356,1.346 7.048,2.494 11.073,3.434c4.024,0.947 7.916,1.892 11.675,2.829c2.821,0.678 6.141,1.354 9.963,2.023c3.827,0.678 7.781,1.618 11.878,2.831c4.092,1.214 8.15,2.832 12.179,4.854c4.02,2.02 7.615,4.617 10.767,7.785c3.154,3.168 5.702,7.078 7.648,11.728c1.946,4.651 2.92,10.28 2.92,16.882c0,7.684 -1.343,14.357 -4.026,20.02c-2.684,5.66 -6.508,10.345 -11.473,14.05c-4.965,3.711 -10.87,6.504 -17.713,8.393c-6.844,1.887 -14.427,2.829 -22.746,2.829c-7.651,0 -14.393,-0.576 -20.23,-1.719c-5.838,-1.141 -11.174,-2.696 -16.004,-4.651c-4.83,-1.95 -9.392,-4.277 -13.689,-6.973c-4.292,-2.694 -8.721,-5.663 -13.281,-8.899" style="fill:#231f20;fill-rule:nonzero;"/></g></svg>